<svg width="243" height="231" viewBox="0 0 243 231" fill="none" xmlns="http://www.w3.org/2000/svg">
<path d="M126.25 0.800781L150.75 135.516L178.75 153.301L154.25 15.3694L126.25 0.800781Z" fill="url(#paint0_linear_523_1555)"/>
<path d="M125.75 0L104.75 153.432L132.75 169.655L154.25 14.5L125.75 0Z" fill="url(#paint1_linear_523_1555)"/>
<path d="M115.75 87.4526L132.25 169.5L104.25 153.5L87.75 73L115.75 87.4526Z" fill="url(#paint2_linear_523_1555)"/>
<path d="M115.25 87.0004L92.25 182.32L64.25 169.5L87.25 72.5479L115.25 87.0004Z" fill="url(#paint3_linear_523_1555)"/>
<path d="M21.952 196.76H24.096V219.32H21.696L21.728 201.848L14.4 215.736H12.544L5.184 201.976L5.216 219.32H2.784V196.76H4.96L13.504 213.112L21.952 196.76ZM29.6903 219.32V196.76H43.9623V198.936H32.2823V206.776H43.3223V208.952H32.2823V217.144H43.9623V219.32H29.6903ZM48.3153 196.76H55.8993C59.5046 196.76 62.2886 197.742 64.2513 199.704C66.2353 201.646 67.2273 204.419 67.2273 208.024C67.2273 211.63 66.2353 214.414 64.2513 216.376C62.2886 218.339 59.5046 219.32 55.8993 219.32H48.3153V196.76ZM55.7393 217.08C61.5846 217.08 64.5073 214.062 64.5073 208.024C64.5073 202.008 61.5846 199 55.7393 199H50.9393V217.08H55.7393ZM71.9715 219.32V196.76H74.5955V219.32H71.9715ZM97.407 219.32L94.911 213.528H83.135L80.639 219.32H77.951L87.871 196.76H90.143L100.063 219.32H97.407ZM84.063 211.352H93.983L89.023 199.8L84.063 211.352ZM110.39 219.576C106.87 219.576 104.054 218.627 101.942 216.728L102.966 214.712C104.075 215.651 105.206 216.323 106.358 216.728C107.531 217.134 108.886 217.336 110.422 217.336C112.235 217.336 113.632 216.984 114.614 216.28C115.595 215.576 116.086 214.584 116.086 213.304C116.086 212.558 115.851 211.95 115.382 211.48C114.912 211.011 114.294 210.638 113.526 210.36C112.758 210.083 111.723 209.795 110.422 209.496C108.672 209.091 107.232 208.664 106.102 208.216C104.992 207.768 104.086 207.128 103.382 206.296C102.699 205.464 102.358 204.376 102.358 203.032C102.358 201.752 102.688 200.622 103.35 199.64C104.032 198.638 104.992 197.87 106.23 197.336C107.488 196.782 108.939 196.504 110.582 196.504C112.139 196.504 113.59 196.75 114.934 197.24C116.299 197.731 117.451 198.435 118.39 199.352L117.398 201.368C116.331 200.451 115.243 199.79 114.134 199.384C113.046 198.958 111.862 198.744 110.582 198.744C108.832 198.744 107.456 199.118 106.454 199.864C105.472 200.59 104.982 201.614 104.982 202.936C104.982 204.067 105.419 204.92 106.294 205.496C107.168 206.072 108.491 206.563 110.262 206.968C112.203 207.438 113.728 207.875 114.838 208.28C115.947 208.664 116.864 209.251 117.59 210.04C118.336 210.83 118.71 211.886 118.71 213.208C118.71 214.488 118.368 215.608 117.686 216.568C117.024 217.528 116.064 218.275 114.806 218.808C113.547 219.32 112.075 219.576 110.39 219.576ZM132.604 219.576C130.47 219.576 128.614 219.118 127.036 218.2C125.457 217.262 124.241 215.928 123.388 214.2C122.556 212.451 122.14 210.392 122.14 208.024C122.14 205.656 122.556 203.608 123.388 201.88C124.241 200.152 125.457 198.83 127.036 197.912C128.614 196.974 130.47 196.504 132.604 196.504C134.161 196.504 135.59 196.75 136.892 197.24C138.193 197.71 139.324 198.414 140.284 199.352L139.292 201.368C138.204 200.451 137.137 199.79 136.092 199.384C135.046 198.979 133.894 198.776 132.636 198.776C130.161 198.776 128.241 199.587 126.876 201.208C125.532 202.808 124.86 205.08 124.86 208.024C124.86 210.99 125.532 213.283 126.876 214.904C128.241 216.504 130.161 217.304 132.636 217.304C133.894 217.304 135.046 217.102 136.092 216.696C137.137 216.291 138.204 215.63 139.292 214.712L140.284 216.728C139.324 217.667 138.193 218.382 136.892 218.872C135.59 219.342 134.161 219.576 132.604 219.576ZM161.345 219.32L158.849 213.528H147.073L144.577 219.32H141.889L151.809 196.76H154.081L164.001 219.32H161.345ZM148.001 211.352H157.921L152.961 199.8L148.001 211.352ZM167.347 219.32V196.76H169.971V217.08H181.267V219.32H167.347ZM184.628 219.32V196.76H198.9V198.936H187.22V206.776H198.26V208.952H187.22V217.144H198.9V219.32H184.628ZM221.013 219.32H218.133L214.293 212.088C213.823 211.214 213.269 210.616 212.629 210.296C212.01 209.955 211.157 209.784 210.069 209.784H205.845V219.32H203.253V196.76H212.533C214.986 196.76 216.853 197.304 218.133 198.392C219.434 199.48 220.085 201.08 220.085 203.192C220.085 204.942 219.583 206.36 218.581 207.448C217.599 208.515 216.191 209.187 214.357 209.464C214.933 209.635 215.434 209.923 215.861 210.328C216.309 210.734 216.714 211.278 217.077 211.96L221.013 219.32ZM212.309 207.608C214.058 207.608 215.359 207.246 216.213 206.52C217.087 205.795 217.525 204.696 217.525 203.224C217.525 201.774 217.098 200.696 216.245 199.992C215.391 199.288 214.079 198.936 212.309 198.936H205.845V207.608H212.309ZM232.327 219.576C228.807 219.576 225.991 218.627 223.879 216.728L224.903 214.712C226.012 215.651 227.143 216.323 228.295 216.728C229.468 217.134 230.823 217.336 232.359 217.336C234.172 217.336 235.57 216.984 236.551 216.28C237.532 215.576 238.023 214.584 238.023 213.304C238.023 212.558 237.788 211.95 237.319 211.48C236.85 211.011 236.231 210.638 235.463 210.36C234.695 210.083 233.66 209.795 232.359 209.496C230.61 209.091 229.17 208.664 228.039 208.216C226.93 207.768 226.023 207.128 225.319 206.296C224.636 205.464 224.295 204.376 224.295 203.032C224.295 201.752 224.626 200.622 225.287 199.64C225.97 198.638 226.93 197.87 228.167 197.336C229.426 196.782 230.876 196.504 232.519 196.504C234.076 196.504 235.527 196.75 236.871 197.24C238.236 197.731 239.388 198.435 240.327 199.352L239.335 201.368C238.268 200.451 237.18 199.79 236.071 199.384C234.983 198.958 233.799 198.744 232.519 198.744C230.77 198.744 229.394 199.118 228.391 199.864C227.41 200.59 226.919 201.614 226.919 202.936C226.919 204.067 227.356 204.92 228.231 205.496C229.106 206.072 230.428 206.563 232.199 206.968C234.14 207.438 235.666 207.875 236.775 208.28C237.884 208.664 238.802 209.251 239.527 210.04C240.274 210.83 240.647 211.886 240.647 213.208C240.647 214.488 240.306 215.608 239.623 216.568C238.962 217.528 238.002 218.275 236.743 218.808C235.484 219.32 234.012 219.576 232.327 219.576Z" fill="white"/>
<defs>
<linearGradient id="paint0_linear_523_1555" x1="163.25" y1="145" x2="149.75" y2="64" gradientUnits="userSpaceOnUse">
<stop stop-color="#4C9DD5"/>
<stop offset="1" stop-color="#043696"/>
</linearGradient>
<linearGradient id="paint1_linear_523_1555" x1="129.5" y1="0" x2="129.5" y2="169.655" gradientUnits="userSpaceOnUse">
<stop stop-color="#CDEAFF"/>
<stop offset="1" stop-color="#4C9DD5"/>
</linearGradient>
<linearGradient id="paint2_linear_523_1555" x1="117.25" y1="169" x2="110.25" y2="117" gradientUnits="userSpaceOnUse">
<stop stop-color="#5BA1E6"/>
<stop offset="1" stop-color="#102E7E"/>
</linearGradient>
<linearGradient id="paint3_linear_523_1555" x1="89.75" y1="72.5479" x2="89.75" y2="182.32" gradientUnits="userSpaceOnUse">
<stop stop-color="#CDEAFF"/>
<stop offset="1" stop-color="#4C9DD5"/>
</linearGradient>
</defs>
</svg>
